<svg width="16.034058" height="16.000000" viewBox="0 0 16.0341 16" fill="none" xmlns="http://www.w3.org/2000/svg" xmlns:xlink="http://www.w3.org/1999/xlink">
	<desc>
			Created with Pixso.
	</desc>
	<defs>
		<clipPath id="clip10_42">
			<rect id="instagram" width="16.034058" height="16.000000" fill="white" fill-opacity="0"/>
		</clipPath>
	</defs>
	<rect id="instagram" width="16.034058" height="16.000000" fill="#FFFFFF" fill-opacity="0"/>
	<g clip-path="url(#clip10_42)">
		<path id="Vector" d="M16.01 4.7C15.98 3.85 15.84 3.26 15.64 2.76C15.44 2.22 15.12 1.74 14.71 1.34C14.31 0.93 13.83 0.62 13.29 0.42C12.78 0.22 12.2 0.08 11.35 0.05C10.49 0 10.22 0 8.04 0C5.86 0 5.59 0 4.74 0.04C3.88 0.08 3.3 0.22 2.79 0.41C2.25 0.62 1.77 0.93 1.37 1.34C0.96 1.74 0.65 2.22 0.45 2.75C0.25 3.26 0.11 3.85 0.07 4.7C0.03 5.55 0.02 5.82 0.02 8C0.02 10.17 0.03 10.44 0.07 11.29C0.11 12.14 0.25 12.73 0.44 13.24C0.65 13.77 0.96 14.25 1.37 14.65C1.77 15.06 2.26 15.38 2.79 15.58C3.3 15.77 3.88 15.91 4.73 15.95C5.59 15.99 5.86 16 8.04 16C10.22 16 10.49 15.99 11.34 15.95C12.19 15.91 12.78 15.77 13.29 15.58C14.37 15.16 15.22 14.31 15.63 13.24C15.83 12.73 15.97 12.14 16.01 11.29C16.04 10.44 16.05 10.17 16.05 8C16.05 5.82 16.05 5.55 16.01 4.7ZM14.57 11.23C14.53 12.01 14.4 12.43 14.29 12.72C14.02 13.41 13.47 13.97 12.77 14.24C12.49 14.34 12.06 14.48 11.28 14.51C10.44 14.55 10.18 14.56 8.04 14.56C5.91 14.56 5.65 14.55 4.81 14.51C4.02 14.48 3.6 14.34 3.32 14.24C2.97 14.11 2.65 13.9 2.4 13.64C2.13 13.38 1.93 13.07 1.8 12.72C1.69 12.44 1.56 12.01 1.52 11.23C1.49 10.39 1.48 10.14 1.48 8C1.48 5.87 1.49 5.61 1.52 4.77C1.56 3.99 1.69 3.57 1.8 3.29C1.93 2.94 2.13 2.62 2.4 2.37C2.66 2.1 2.97 1.9 3.32 1.77C3.6 1.66 4.03 1.53 4.81 1.5C5.65 1.46 5.91 1.45 8.05 1.45C10.19 1.45 10.44 1.46 11.29 1.5C12.07 1.53 12.49 1.66 12.77 1.77C13.12 1.9 13.44 2.1 13.7 2.37C13.96 2.63 14.16 2.94 14.29 3.29C14.4 3.57 14.53 3.99 14.57 4.77C14.61 5.61 14.62 5.87 14.62 8C14.62 10.14 14.61 10.39 14.57 11.23Z" fill="#FFFFFF" fill-opacity="1.000000" fill-rule="nonzero"/>
		<path id="Vector" d="M8.04 3.89C5.77 3.89 3.92 5.73 3.92 8C3.92 10.27 5.77 12.11 8.04 12.11C10.32 12.11 12.16 10.27 12.16 8C12.16 5.73 10.32 3.89 8.04 3.89ZM8.04 10.66C6.57 10.66 5.37 9.47 5.37 8C5.37 6.52 6.57 5.33 8.04 5.33C9.52 5.33 10.71 6.52 10.71 8C10.71 9.47 9.52 10.66 8.04 10.66Z" fill="#FFFFFF" fill-opacity="1.000000" fill-rule="nonzero"/>
		<path id="Vector" d="M13.29 3.72C13.29 4.25 12.85 4.68 12.32 4.68C11.79 4.68 11.36 4.25 11.36 3.72C11.36 3.19 11.79 2.76 12.32 2.76C12.85 2.76 13.29 3.19 13.29 3.72Z" fill="#FFFFFF" fill-opacity="1.000000" fill-rule="nonzero"/>
	</g>
</svg>
