<svg width="20.042572" height="16.250000" viewBox="0 0 20.0426 16.25" fill="none" xmlns="http://www.w3.org/2000/svg" xmlns:xlink="http://www.w3.org/1999/xlink">
	<desc>
			Created with Pixso.
	</desc>
	<defs/>
	<path id="Vector" d="M20.04 1.92C19.29 2.25 18.5 2.46 17.67 2.57C18.52 2.06 19.17 1.26 19.48 0.3C18.68 0.77 17.81 1.11 16.87 1.29C16.12 0.49 15.04 0 13.87 0C11.6 0 9.76 1.84 9.76 4.1C9.76 4.42 9.79 4.73 9.86 5.03C6.44 4.87 3.42 3.23 1.39 0.74C1.04 1.36 0.83 2.06 0.83 2.81C0.83 4.24 1.56 5.49 2.65 6.22C1.99 6.21 1.35 6.02 0.8 5.72C0.8 5.73 0.8 5.75 0.8 5.76C0.8 7.75 2.22 9.41 4.09 9.79C3.75 9.88 3.39 9.93 3.01 9.93C2.75 9.93 2.48 9.91 2.23 9.86C2.77 11.48 4.28 12.67 6.07 12.71C4.67 13.8 2.9 14.46 0.98 14.46C0.64 14.46 0.32 14.45 0 14.41C1.82 15.58 3.97 16.25 6.3 16.25C13.86 16.25 17.99 10 17.99 4.58C17.99 4.4 17.99 4.22 17.98 4.05C18.79 3.47 19.48 2.75 20.04 1.92Z" fill="#FFFFFF" fill-opacity="1.000000" fill-rule="nonzero"/>
</svg>
